TITLE ""
FILE "DISC1Track21.mp3" MP3
  TRACK 01 AUDIO
    TITLE "DISC1Track21_01"
    INDEX 01 00:00:00
  TRACK 02 AUDIO
    TITLE "DISC1Track21_02"
    INDEX 01 00:02:44
  TRACK 03 AUDIO
    TITLE "DISC1Track21_03"
    INDEX 01 00:02:66
  TRACK 04 AUDIO
    TITLE "DISC1Track21_04"
    INDEX 01 00:06:34
  TRACK 05 AUDIO
    TITLE "DISC1Track21_05"
    INDEX 01 00:10:32
  TRACK 06 AUDIO
    TITLE "DISC1Track21_06"
    INDEX 01 00:14:24
  TRACK 07 AUDIO
    TITLE "DISC1Track21_07"
    INDEX 01 00:14:50
  TRACK 08 AUDIO
    TITLE "DISC1Track21_08"
    INDEX 01 00:17:62
  TRACK 09 AUDIO
    TITLE "DISC1Track21_09"
    INDEX 01 00:20:37
  TRACK 10 AUDIO
    TITLE "DISC1Track21_10"
    INDEX 01 00:23:05
  TRACK 11 AUDIO
    TITLE "DISC1Track21_11"
    INDEX 01 00:23:25
  TRACK 12 AUDIO
    TITLE "DISC1Track21_12"
    INDEX 01 00:26:47
  TRACK 13 AUDIO
    TITLE "DISC1Track21_13"
    INDEX 01 00:29:28
  TRACK 14 AUDIO
    TITLE "DISC1Track21_14"
    INDEX 01 00:32:01
  TRACK 15 AUDIO
    TITLE "DISC1Track21_15"
    INDEX 01 00:32:24
  TRACK 16 AUDIO
    TITLE "DISC1Track21_16"
    INDEX 01 00:36:36
  TRACK 17 AUDIO
    TITLE "DISC1Track21_17"
    INDEX 01 00:40:43
  TRACK 18 AUDIO
    TITLE "DISC1Track21_18"
    INDEX 01 00:44:43
  TRACK 19 AUDIO
    TITLE "DISC1Track21_19"
    INDEX 01 00:44:64
  TRACK 20 AUDIO
    TITLE "DISC1Track21_20"
    INDEX 01 00:47:65
  TRACK 21 AUDIO
    TITLE "DISC1Track21_21"
    INDEX 01 00:50:26
  TRACK 22 AUDIO
    TITLE "DISC1Track21_22"
    INDEX 01 00:52:56
  TRACK 23 AUDIO
    TITLE "DISC1Track21_23"
    INDEX 01 00:53:05
  TRACK 24 AUDIO
    TITLE "DISC1Track21_24"
    INDEX 01 00:55:31
  TRACK 25 AUDIO
    TITLE "DISC1Track21_25"
    INDEX 01 00:57:36
  TRACK 26 AUDIO
    TITLE "DISC1Track21_26"
    INDEX 01 00:59:40
  TRACK 27 AUDIO
    TITLE "DISC1Track21_27"
    INDEX 01 00:59:62
  TRACK 28 AUDIO
    TITLE "DISC1Track21_28"
    INDEX 01 01:02:23
  TRACK 29 AUDIO
    TITLE "DISC1Track21_29"
    INDEX 01 01:04:32
  TRACK 30 AUDIO
    TITLE "DISC1Track21_30"
    INDEX 01 01:06:33
  TRACK 31 AUDIO
    TITLE "DISC1Track21_31"
    INDEX 01 01:06:52
  TRACK 32 AUDIO
    TITLE "DISC1Track21_32"
    INDEX 01 01:10:72
  TRACK 33 AUDIO
    TITLE "DISC1Track21_33"
    INDEX 01 01:14:18
  TRACK 34 AUDIO
    TITLE "DISC1Track21_34"
    INDEX 01 01:17:42
  TRACK 35 AUDIO
    TITLE "DISC1Track21_35"
    INDEX 01 01:17:66
  TRACK 36 AUDIO
    TITLE "DISC1Track21_36"
    INDEX 01 01:19:53
  TRACK 37 AUDIO
    TITLE "DISC1Track21_37"
    INDEX 01 01:21:50
  TRACK 38 AUDIO
    TITLE "DISC1Track21_38"
    INDEX 01 01:23:43
  TRACK 39 AUDIO
    TITLE "DISC1Track21_39"
    INDEX 01 01:23:70
  TRACK 40 AUDIO
    TITLE "DISC1Track21_40"
    INDEX 01 01:27:35
  TRACK 41 AUDIO
    TITLE "DISC1Track21_41"
    INDEX 01 01:29:73
  TRACK 42 AUDIO
    TITLE "DISC1Track21_42"
    INDEX 01 01:32:32
  TRACK 43 AUDIO
    TITLE "DISC1Track21_43"
    INDEX 01 01:32:56
  TRACK 44 AUDIO
    TITLE "DISC1Track21_44"
    INDEX 01 01:35:42
  TRACK 45 AUDIO
    TITLE "DISC1Track21_45"
    INDEX 01 01:37:39
  TRACK 46 AUDIO
    TITLE "DISC1Track21_46"
    INDEX 01 01:39:28
  TRACK 47 AUDIO
    TITLE "DISC1Track21_47"
    INDEX 01 01:39:52
  TRACK 48 AUDIO
    TITLE "DISC1Track21_48"
    INDEX 01 01:41:57
  TRACK 49 AUDIO
    TITLE "DISC1Track21_49"
    INDEX 01 01:44:06
  TRACK 50 AUDIO
    TITLE "DISC1Track21_50"
    INDEX 01 01:46:22
  TRACK 51 AUDIO
    TITLE "DISC1Track21_51"
    INDEX 01 01:46:48
  TRACK 52 AUDIO
    TITLE "DISC1Track21_52"
    INDEX 01 01:49:72
  TRACK 53 AUDIO
    TITLE "DISC1Track21_53"
    INDEX 01 01:53:73
  TRACK 54 AUDIO
    TITLE "DISC1Track21_54"
    INDEX 01 01:57:65
